# xmcd
#
# Track frame offsets: 
#        150
#        13610
#        26640
#        37640
#        49407
#        60222
#        72177
#        84992
#        95312
#        107272
#        121132
#        130772
#        142705
#        152977
#        165055
#        178330
#        192032
#        205432
#        216672
#        227192
#        236900
#        249495
#        261922
#        275185
#        287222
#
# Disc length: 4008 seconds
#
# Revision: 2
# Processed by: cddbd v1.5.2PL0 Copyright (c) Steve Scherf et al.
# Submitted via: ExactAudioCopy v1.1
#
DISCID=5e0fa619
DTITLE=Various Artist - Kansas City Blues - Disc 2
DYEAR=1997
DGENRE=Blues
TTITLE0=Julia Lee - Don't Come Too Soon (mono)
TTITLE1=Julia Lee - Ugly Papa (mono)
TTITLE2=Julia Lee - Don't Save It Too Long (The Money Song) (mono)
TTITLE3=Julia Lee - After Hours Waltz (mono)
TTITLE4=Bus Moten - I Ain't Gonna Give Nobody None Of My Jelly Roll (m
TTITLE4=ono)
TTITLE5=Bus Moten - Sugar Daddy Blues (mono)
TTITLE6=Bus Moten - Gone (mono)
TTITLE7=Bus Moten - Gotta Good Reason For Being Bad (mono)
TTITLE8=Walter Brown - Play The Blues (mono)
TTITLE9=Walter Brown - What Evil Have I Done (mono)
TTITLE10=Walter Brown - Gonna Play With Your Woman (mono)
TTITLE11=Walter Brown - Work Don't Bother Me (mono)
TTITLE12=Tommy Douglas - Goosed (mono)
TTITLE13=Tommy Douglas - Jackson County Romp (mono)
TTITLE14=Tommy Douglas - Mizzou' (mono)
TTITLE15=Tommy Douglas - Hot Sauce (mono)
TTITLE16=Walter Brown - Inform Me Baby (mono)
TTITLE17=Walter Brown - Lyin' Woman Blues (mono)
TTITLE18=Walter Brown - Suppressin' The Blues (mono)
TTITLE19=Walter Brown - Hello And Goodbye (mono)
TTITLE20=Julia Lee - You Ain't Got It No More (mono)
TTITLE21=Julia Lee - When Your Lover Has Gone (mono)
TTITLE22=Julia Lee - Oh Chuck It (In A Bucket) (mono)
TTITLE23=Julia Lee - Decent Woman Blues (mono)
TTITLE24=Julia Lee - Dragging My Heart Around (mono)
EXTD=
EXTT0=
EXTT1=
EXTT2=
EXTT3=
EXTT4=
EXTT5=
EXTT6=
EXTT7=
EXTT8=
EXTT9=
EXTT10=
EXTT11=
EXTT12=
EXTT13=
EXTT14=
EXTT15=
EXTT16=
EXTT17=
EXTT18=
EXTT19=
EXTT20=
EXTT21=
EXTT22=
EXTT23=
EXTT24=
PLAYORDER=
